<?xml version="1.0" encoding="utf-8"?>
<!-- Generator: Adobe Illustrator 21.0.2, SVG Export Plug-In . SVG Version: 6.00 Build 0)  -->
<svg version="1.1" id="Layer_1" xmlns="http://www.w3.org/2000/svg" xmlns:xlink="http://www.w3.org/1999/xlink" x="0px" y="0px"
	 viewBox="0 0 520.6 258.4" style="enable-background:new 0 0 520.6 258.4;" xml:space="preserve">
<style type="text/css">
	.st0{fill-rule:evenodd;clip-rule:evenodd;fill:#575656;}
	.st1{fill-rule:evenodd;clip-rule:evenodd;fill:#62C3D0;}
</style>
<g>
	<path class="st0" d="M286.6,67.2c4-15.5-0.4-23.1-13.3-23.2c-7.7,0-16.7,3.2-27,11.3c-0.5-3.1-1.8-5.8-4.7-8.1
		c-2.7-2.3-6-3.2-10-3.2c-7.5,0-16,2.9-25.4,10.2c1-3.7,2.1-6.7,3-10.4c-1,0-3.1,0-4.1,0c-7.6,2.8-13.4,5-21,7.8
		c-0.3,0.8-0.9,2.5-1.2,3.4c5.3,1.2,6.2,4,4.6,11.1c-1.4,6.3-7.8,31.2-9.3,37.3c-0.6,3-1.4,4.6-2.7,5.9c-2.1,2.3-5.7,2.3-7.8,2.3
		l-1.3,5l32.8,0l1.3-5c-3.9-0.3-6-0.5-7.1-2c-0.7-1.2-0.4-3.2,0.4-6.6c1.7-6.4,10.1-39,11-42.5c7.2-6.6,13.4-9.8,19-9.8
		c6.3,0,8,5.5,5.3,16.2c0,0-8.3,32.9-9,35.7c-0.7,2.8-1.9,5.6-3,6.8c-1.9,2.3-5.6,2.3-8.1,2.2l-1.3,5c10.8,0,22.2,0,33.3,0l1.2-5
		c-3.9-0.1-6.1-0.4-6.8-2c-0.7-1.2-0.4-3.6,0.4-7.2c1.7-6.9,8.8-34.8,10.6-41.7c7.9-6.6,14.3-10,19.1-10c6.3,0,8,6,4.9,17.8
		c-1.4,5.8-7.4,29.2-8.9,35.1c-0.8,3.3-2,5.6-3.6,6.6c-1.4,1.2-3.8,1.3-7.2,1.3c-0.3,0.9-1.3,5-1.3,5c11,0,22.1,0,33.1,0
		c0.4-1.5,0.9-3.6,1.2-5c-3-0.1-5.2-0.4-6.3-1.4c-0.7-0.7-1.4-1.7-0.4-5.9C278.7,98.2,285,73.5,286.6,67.2z"/>
	<path class="st0" d="M144.3,45.5l-0.9,3.6c5.7,0.5,7.5,4.2,5.3,14.1c-1.5,6.6-7.9,31.4-9.4,37.9c-7.3,5.8-13.5,9.4-18.5,9.3
		c-6.3,0-8-5.4-5.2-17.2c2-7.9,4-15.8,6-23.8c2-8,4.1-16,6.1-24c-8.4,0-25,0-25,0s-0.5,2-0.9,3.6c4.5,0.4,6.6,1.9,7,4.8
		c0.4,1.2-0.5,6.3-2.2,12.8c-2.3,9.4-4.6,18.9-7,28.2c-1.6,6.6-1.6,12.1,0.1,16.2c2.1,4.9,6.4,7,12.9,7c7.3,0.1,15.8-3.5,25.2-10.9
		c-0.4,1.9-1.1,4.2-0.9,5.6c0.3,2.6,1.5,3.8,7.1,3.8c3.3,0,15.6,0,15.6,0l1.2-5c0,0-4.4,0.2-6.5-1.8c-2-2.1-0.1-5.8,0.6-8.8
		c2.3-9.3,13.8-55.4,13.8-55.4S151.7,45.5,144.3,45.5L144.3,45.5z"/>
	<path class="st0" d="M432.3,70.8l-29.4,0c1.5-5.4,3.9-10.3,6-13.2c2.5-3.5,7.2-8.7,14.4-8.8C431.3,48.8,436.4,55.6,432.3,70.8
		L432.3,70.8z M427,44.2c-3,0-5.9,0.5-8.9,1.3c-6.4,2-12.8,5.5-18.5,11.5c-6.6,6.9-11.1,15.6-14.2,26.4c-2.3,7.7-2.3,16.4,1.3,23.8
		c3.4,7,10,11.1,19.5,11.2c3.9,0,8-0.7,11.9-2.1c7.7-2.6,16.8-10.6,21.9-17.5l-1.9-3.2c-6,5.8-12.3,12-23.3,11.3
		c-7.2-0.4-11-4.2-13.7-10.4c-2.1-5.1-1.2-15.1,0.3-20.6h45.3c2-8,1.4-17-2.1-22.6C441,47.2,435,44.2,427,44.2L427,44.2z"/>
	<path class="st0" d="M335.1,4.3c4.8,0,7.1,2.4,7.1,6.9c0,3.3-1.3,7.1-3.2,9.5c-2.4,3.2-6.3,5.4-10.8,5.4c-5.4,0-6.9-3.2-6.9-6.7
		c0-1.5,0.4-2.8,0.7-4.1C322.8,13,326,4.3,335.1,4.3L335.1,4.3z"/>
	<polygon class="st1" points="521,216.6 0,216.6 0,195.3 520.8,195.3 520.8,216.6 	"/>
	<polygon class="st0" points="13.6,181.1 7.1,181.1 7.1,133.4 13.6,133.4 13.6,181.1 	"/>
	<path class="st0" d="M63.8,180.8h-5.9v-21.4c0-6-1.7-9.1-7.4-9.1c-3.3,0-9.2,2.1-9.2,11.6v18.9h-5.8v-34.8H41v4.9h0.1
		c1.3-1.9,4.5-5.9,10.5-5.9c5.4,0,12.2,2.2,12.2,12.1V180.8L63.8,180.8z"/>
	<path class="st0" d="M92.9,151.3v22.6c0,2.7,2.3,2.7,3.5,2.7h2.1v4.6c-2.1,0.2-3.8,0.5-4.4,0.5c-5.8,0-7.1-3.3-7.1-7.4v-22.9h-4.7
		v-4.8h4.7v-9.7h5.8v9.7h5.6v4.8H92.9L92.9,151.3z"/>
	<path class="st0" d="M140.5,169.9c-0.2,2.6-3.4,6.8-9,6.8c-6.7,0-10.1-4.2-10.1-11.4h25.4c0-12.3-4.9-20.3-15-20.3
		c-11.5,0-16.7,8.6-16.7,19.3c0,10,5.8,17.4,15.6,17.4c5.6,0,7.8-1.3,9.4-2.4c4.4-2.9,6-7.8,6.2-9.5H140.5L140.5,169.9L140.5,169.9z
		 M121.4,160.7c0-5.4,4.3-10.4,9.7-10.4c7.1,0,9.4,5,9.7,10.4H121.4L121.4,160.7z"/>
	<path class="st0" d="M173.9,181h-5.8v-34.8h5.5v5.8h0.1c2.3-4.1,5.4-6.8,9.8-6.8c0.7,0,1.1,0.1,1.5,0.2v6.1h-2.2
		c-5.4,0-8.9,4.2-8.9,9.3V181L173.9,181z"/>
	<path class="st0" d="M230.8,180.8H225v-21.4c0-6-1.7-9.1-7.4-9.1c-3.3,0-9.2,2.1-9.2,11.6v18.9h-5.8v-34.8h5.5v4.9h0.1
		c1.3-1.9,4.5-5.9,10.5-5.9c5.4,0,12.2,2.2,12.2,12.1V180.8L230.8,180.8z"/>
	<path class="st0" d="M256.8,156.6c0.4-2.7,1.3-6.7,8-6.7c5.5,0,8.2,2,8.2,5.7c0,3.5-1.7,4-3.1,4.1l-9.6,1.2
		c-9.7,1.2-10.6,8-10.6,10.9c0,6,4.5,10,10.9,10c6.8,0,10.3-3.2,12.6-5.7c0.2,2.7,1,5.3,6.2,5.3c1.3,0,2.2-0.4,3.2-0.7v-4.2
		c-0.7,0.1-1.4,0.2-1.9,0.2c-1.2,0-1.9-0.6-1.9-2.1v-20c0-8.9-10.1-9.7-12.9-9.7c-8.6,0-14.1,3.3-14.3,11.6H256.8L256.8,156.6
		L256.8,156.6z M272.8,168.8c0,4.6-5.3,8.2-10.8,8.2c-4.4,0-6.3-2.3-6.3-6c0-4.4,4.6-5.3,7.4-5.7c7.2-0.9,8.7-1.5,9.6-2.2V168.8
		L272.8,168.8z"/>
	<path class="st0" d="M308.4,151.3v22.6c0,2.7,2.3,2.7,3.5,2.7h2.1v4.6c-2.1,0.2-3.8,0.5-4.4,0.5c-5.8,0-7-3.3-7-7.4v-22.9h-4.7
		v-4.8h4.7v-9.7h5.8v9.7h5.6v4.8H308.4L308.4,151.3z"/>
	<path class="st0" d="M333,140v-6.7h5.8v6.7H333L333,140L333,140z M338.8,181.1H333v-34.8h5.8V181.1L338.8,181.1z"/>
	<path class="st0" d="M358.3,163.4c0,9,5.1,18.3,16.1,18.3c11.1,0,16.1-9.4,16.1-18.3c0-9-5-18.3-16.1-18.3
		C363.3,145.1,358.3,154.4,358.3,163.4L358.3,163.4L358.3,163.4z M364.3,163.4c0-4.6,1.7-13.3,10.1-13.3c8.4,0,10.1,8.7,10.1,13.3
		c0,4.6-1.7,13.3-10.1,13.3C366.1,176.7,364.3,168.1,364.3,163.4L364.3,163.4z"/>
	<path class="st0" d="M437.7,180.8h-5.8v-21.4c0-6-1.7-9.1-7.5-9.1c-3.3,0-9.2,2.1-9.2,11.6v18.9h-5.9v-34.8h5.5v4.9h0.1
		c1.2-1.9,4.5-5.9,10.5-5.9c5.4,0,12.2,2.2,12.2,12.1V180.8L437.7,180.8z"/>
	<path class="st0" d="M463.7,156.6c0.4-2.7,1.3-6.7,8-6.7c5.5,0,8.2,2,8.2,5.7c0,3.5-1.7,4-3.1,4.1l-9.6,1.2
		c-9.7,1.2-10.6,8-10.6,10.9c0,6,4.5,10,10.9,10c6.8,0,10.3-3.2,12.6-5.7c0.2,2.7,1,5.3,6.2,5.3c1.3,0,2.2-0.4,3.2-0.7v-4.2
		c-0.7,0.1-1.4,0.2-1.9,0.2c-1.2,0-1.9-0.6-1.9-2.1v-20c0-8.9-10.1-9.7-12.9-9.7c-8.6,0-14.1,3.3-14.4,11.6H463.7L463.7,156.6
		L463.7,156.6z M479.7,168.8c0,4.6-5.3,8.2-10.8,8.2c-4.4,0-6.3-2.3-6.3-6c0-4.4,4.6-5.3,7.4-5.7c7.2-0.9,8.7-1.5,9.6-2.2V168.8
		L479.7,168.8z"/>
	<polygon class="st0" points="513.6,181 507.8,181 507.8,133.3 513.6,133.3 513.6,181 	"/>
	<path class="st0" d="M322.6,116.7c0,0,1.2-5,1.2-5c-3.9-0.3-6.2-0.4-7-2c-0.7-1.2,0-3.1,0.8-6.6c2.5-10.1,14.9-59.3,14.9-59.3
		s-3,0-4,0c-7.6,2.8-13.5,5-21,7.8c-0.3,0.8-0.9,2.5-1.2,3.4c5.3,1.2,6.2,4,4.6,11.1c-1.4,6.3-7.8,31.2-9.4,37.3
		c-1.5,5.8-4.4,8.1-9.5,8.2c-0.4,1.6-1.3,5-1.3,5C301.3,116.7,311.8,116.7,322.6,116.7L322.6,116.7z"/>
	<path class="st0" d="M82.9,4c-2.6-0.4-6.3-1.6-10.4-2.6C68.2,0.4,65.3,0,61.6,0c-7.3,0-17.7,2.7-24,9.4
		c-6.3,6.7-8.6,10.8-10.8,19.3c-1.7,6.9-1.8,15.1,0.7,20.1c3.9,7.8,10.1,12.9,22.2,16.9c8.7,2.9,15.8,4.7,19.4,8
		c4.3,4.1,6.4,11.3,4.4,19.5c-1.6,6.1-4.3,10.4-9.2,14.3c-5.3,4.2-11.3,5.7-17.5,5.7c-6.6-0.2-12.5-2.5-18-8.8
		c-5.2-5.9-7-15.9-7-29.1c-1.4,0-3,0-4.4,0c-1.6,6.8-3.3,13.6-5,20.5c-1.6,6.8-3.4,13.8-5.1,20.7c1.3,0,2.6,0,3.9,0
		c2.4-4.5,6.2-5.1,10-5.1c2.9,0,6.7,1.2,11.7,3.4c4.9,2.3,9.7,3.1,12.6,3.2c9.3,0,20.1-2.3,28.6-9.1c7.9-6.4,11.9-14.2,14.4-23.5
		c1.7-7,0.6-15.1-1.2-20.4c-1.4-4.1-5.7-9.3-10.4-12.8c-2.5-1.8-6.7-3.7-12.2-5.1C52,44.1,45.7,42.4,41.1,38
		c-2.9-2.8-4.9-7.6-4.3-13.5c0.6-5.3,2-10,6.4-14.3c4.6-4.4,11.2-6,16.7-6c7.7,0,14.8,2.7,19.4,9c3.9,5.4,3.8,12.9,4.2,21.1
		c1.4,0,3,0,4.6,0c0.8-5.4,5.8-27.6,6.7-33.2c-1.7,0-3.4,0-5.2,0C87.5,3.7,86,4.5,82.9,4z"/>
	<path class="st0" d="M372.7,45.6c0,0,3.7-14.2,5.6-21.3c-1.3,0-3.9,0-3.9,0c-13.3,13.3-25.3,22.2-25.3,22.2s-0.7,2.6-1,4.1
		c2.4,0,6.8,0,6.8,0S343.2,97.7,343,98.3c-1.7,7.1-1.7,12.4,0,15.6c1.4,2.9,4.2,4.3,8.3,4.5c6,0,13.6-4.1,22.9-12.2
		c-0.7-1-1.3-2.1-1.9-3.3c-5,4.5-8.8,6.6-11.6,6.6c-3.1,0-3.9-3.4-2-10.5c2.1-8,12.6-48.4,12.6-48.4h17.3l1.3-5
		C389.9,45.6,377.5,45.6,372.7,45.6L372.7,45.6z"/>
	<path class="st0" d="M516.1,45.7c-1.2,1.8-2.6,1.8-4.3,1.7c-2.7-0.2-7.9-3.1-15.3-3.2c-3,0-6,0.5-8.9,1.3
		c-6.4,2-12.8,5.5-18.4,11.5c-6.6,6.9-11.1,15.8-14.2,26.4c-2.4,8.2-2,16.4,1.3,23.8c3,6.7,10,11.1,19.5,11.2c4,0,8.1-0.7,11.9-2.1
		c7.7-2.6,16.8-10.6,21.9-17.5l-1.9-3.2c-6,5.8-12.3,12-23.3,11.3c-7.2-0.4-11.5-3.9-14-10.3c-2.7-6.9-1.7-16.7,1.6-26
		c1.4-4,3.4-8.6,7-13.4c1.8-2.4,5.7-7.4,13.4-8.2c10.5-1,14.5,5,16.6,8.5c2.1,3.6,2.8,9.5,2.2,15.1c1.1,0,2.6,0,3.8,0
		c0.7-4.2,4.9-22.6,5.6-26.9H516.1z"/>
	<path class="st0" d="M13.5,246.7l1.9,5.7h2.9l-7-19.4h-3l-7.3,19.4h2.7l2-5.7H13.5L13.5,246.7z M6.5,244.4l3.1-8.6h0l2.9,8.6H6.5z"
		/>
	<path class="st0" d="M36.8,243c-0.3-1.9-1.4-3-3.4-3c-2.9,0-3.9,2.8-3.9,5.3c0,2.4,0.6,5.4,3.9,5.4c1.6,0,3-1.2,3.4-3.4h2.3
		c-0.3,2.3-1.6,5.4-5.8,5.4c-4,0-6.3-3-6.3-7.1c0-4.4,2.1-7.9,6.8-7.9c3.7,0,5.1,2.7,5.3,5.2H36.8z"/>
	<path class="st0" d="M40.6,245.3c0,3.7,2.1,7.5,6.6,7.5c4.5,0,6.6-3.8,6.6-7.5c0-3.7-2.1-7.5-6.6-7.5
		C42.7,237.8,40.6,241.7,40.6,245.3L40.6,245.3z M43.1,245.3c0-1.9,0.7-5.4,4.1-5.4c3.4,0,4.1,3.5,4.1,5.4c0,1.9-0.7,5.4-4.1,5.4
		C43.8,250.7,43.1,247.2,43.1,245.3z"/>
	<path class="st0" d="M56.5,238.2h2.2v2h0.1c0.5-0.8,1.7-2.4,4.3-2.4c2.5,0,3.4,1.5,3.8,2.3c1.2-1.3,2.1-2.3,4.3-2.3
		c1.5,0,4.4,0.8,4.4,4.8v9.8h-2.4v-9.2c0-1.9-0.6-3.3-2.6-3.3c-2,0-3.3,1.9-3.3,3.8v8.6h-2.4v-9.8c0-1.2-0.5-2.6-2.2-2.6
		c-1.3,0-3.7,0.9-3.7,4.7v7.7h-2.4V238.2z"/>
	<path class="st0" d="M78.9,258h2.4v-7.1h0c0.6,1,1.9,1.9,3.8,1.9c4.8,0,6.2-4.5,6.2-7.9c0-4-2.1-7.1-5.9-7.1
		c-2.6,0-3.7,1.6-4.2,2.4h-0.1v-2h-2.2V258L78.9,258z M81.2,246c0-2.3,0.4-6,3.8-6c3.7,0,3.9,3.5,3.9,5.3c0,3.1-1.2,5.5-3.8,5.5
		C83.5,250.8,81.2,249.8,81.2,246z"/>
	<path class="st0" d="M96.3,242.5c0.2-1.1,0.5-2.7,3.3-2.7c2.2,0,3.3,0.8,3.3,2.3c0,1.4-0.7,1.6-1.3,1.7l-3.9,0.5
		c-4,0.5-4.3,3.3-4.3,4.4c0,2.4,1.8,4.1,4.5,4.1c2.8,0,4.2-1.3,5.1-2.3c0.1,1.1,0.4,2.2,2.5,2.2c0.5,0,0.9-0.2,1.3-0.3v-1.7
		c-0.3,0.1-0.6,0.1-0.8,0.1c-0.5,0-0.8-0.3-0.8-0.8v-8.2c0-3.6-4.1-4-5.3-4c-3.5,0-5.7,1.3-5.8,4.7H96.3L96.3,242.5z M102.8,247.5
		c0,1.9-2.2,3.3-4.4,3.3c-1.8,0-2.6-0.9-2.6-2.5c0-1.8,1.9-2.1,3-2.3c2.9-0.4,3.6-0.6,3.9-0.9V247.5z"/>
	<path class="st0" d="M120.8,252.4h-2.4v-8.7c0-2.5-0.7-3.7-3-3.7c-1.3,0-3.7,0.9-3.7,4.7v7.7h-2.4v-14.2h2.2v2h0.1
		c0.5-0.8,1.8-2.4,4.3-2.4c2.2,0,4.9,0.9,4.9,4.9V252.4z"/>
	<path class="st0" d="M132.7,238.2h2.6c-1.7,4.6-3.3,9.3-5.1,13.9c-2.3,5.7-2.5,6.1-5.6,6.1c-0.3,0-0.6-0.1-1-0.2v-2.2
		c0.3,0.1,0.8,0.2,1.4,0.2c1.2,0,1.4-0.4,2.5-3.3l-5.3-14.5h2.7l3.7,11.5h0.1L132.7,238.2z"/>
	<path class="st0" d="M144.1,245.3c0,3.7,2.1,7.5,6.6,7.5c4.5,0,6.6-3.8,6.6-7.5c0-3.7-2.1-7.5-6.6-7.5
		C146.2,237.8,144.1,241.7,144.1,245.3L144.1,245.3z M146.6,245.3c0-1.9,0.7-5.4,4.1-5.4c3.4,0,4.1,3.5,4.1,5.4
		c0,1.9-0.7,5.4-4.1,5.4C147.3,250.7,146.6,247.2,146.6,245.3z"/>
	<path class="st0" d="M163,240.2v12.2h-2.4v-12.2h-2v-2h2v-2.4c0-2.1,1.3-3.1,3.7-3.1c0.4,0,0.7,0,1.1,0.1v2.1c-0.3,0-0.7-0.1-1-0.1
		c-1,0-1.4,0.5-1.4,1.6v1.8h2.4v2H163z"/>
	<path class="st0" d="M187.1,238.6c-0.1-3-2.6-4-4.8-4c-1.6,0-4.4,0.5-4.4,3.4c0,1.7,1.2,2.2,2.3,2.5l5.6,1.3
		c2.5,0.6,4.4,2.1,4.4,5.2c0,4.6-4.3,5.9-7.6,5.9c-3.6,0-5-1.1-5.9-1.9c-1.6-1.5-2-3.1-2-4.9h2.5c0,3.5,2.9,4.5,5.4,4.5
		c1.9,0,5.1-0.5,5.1-3.3c0-2-1-2.7-4.2-3.4l-4-0.9c-1.3-0.3-4.2-1.2-4.2-4.6c0-3,2-6,6.7-6c6.8,0,7.5,4.1,7.6,6.2H187.1z"/>
	<path class="st0" d="M202.4,252.4v-2.1l-0.1-0.1c-1,1.7-2.2,2.5-4.5,2.5c-2.1,0-4.6-1-4.6-4.4v-10.2h2.4v9.4c0,2.3,1.2,3.1,2.7,3.1
		c3,0,3.9-2.7,3.9-4.7v-7.8h2.4v14.2H202.4z"/>
	<path class="st0" d="M208.2,238.2h2.3v2h0c0.5-0.8,1.7-2.4,4.3-2.4c2.6,0,3.4,1.5,3.8,2.3c1.2-1.3,2.1-2.3,4.3-2.3
		c1.5,0,4.4,0.8,4.4,4.8v9.8h-2.4v-9.2c0-1.9-0.6-3.3-2.6-3.3c-2,0-3.3,1.9-3.3,3.8v8.6h-2.4v-9.8c0-1.2-0.5-2.6-2.2-2.6
		c-1.3,0-3.7,0.9-3.7,4.7v7.7h-2.4V238.2z"/>
	<path class="st0" d="M230.8,235.7V233h2.4v2.7H230.8L230.8,235.7z M233.2,252.4h-2.4v-14.2h2.4V252.4z"/>
	<path class="st0" d="M239.7,240.2v9.2c0,1.1,1,1.1,1.4,1.1h0.8v1.9c-0.9,0.1-1.5,0.2-1.8,0.2c-2.4,0-2.9-1.3-2.9-3v-9.3h-1.9v-2
		h1.9v-4h2.4v4h2.3v2H239.7z"/>
	<path class="st0" d="M243.5,245.3c0,3.7,2.1,7.5,6.6,7.5c4.5,0,6.6-3.8,6.6-7.5c0-3.7-2.1-7.5-6.6-7.5
		C245.6,237.8,243.5,241.7,243.5,245.3L243.5,245.3z M246,245.3c0-1.9,0.7-5.4,4.1-5.4c3.4,0,4.1,3.5,4.1,5.4c0,1.9-0.7,5.4-4.1,5.4
		C246.7,250.7,246,247.2,246,245.3z"/>
	<path class="st0" d="M259.4,238.2h2.3v2h0c0.5-0.8,1.7-2.4,4.3-2.4c2.5,0,3.4,1.5,3.8,2.3c1.2-1.3,2.1-2.3,4.3-2.3
		c1.5,0,4.4,0.8,4.4,4.8v9.8h-2.4v-9.2c0-1.9-0.6-3.3-2.6-3.3c-2,0-3.3,1.9-3.3,3.8v8.6h-2.4v-9.8c0-1.2-0.5-2.6-2.2-2.6
		c-1.3,0-3.7,0.9-3.7,4.7v7.7h-2.4V238.2z"/>
	<path class="st0" d="M281.2,245.3c0,3.7,2.1,7.5,6.6,7.5c4.5,0,6.6-3.8,6.6-7.5c0-3.7-2.1-7.5-6.6-7.5
		C283.2,237.8,281.2,241.7,281.2,245.3L281.2,245.3z M283.6,245.3c0-1.9,0.7-5.4,4.1-5.4c3.4,0,4.1,3.5,4.1,5.4
		c0,1.9-0.7,5.4-4.1,5.4C284.3,250.7,283.6,247.2,283.6,245.3z"/>
	<path class="st0" d="M318.5,238.8c-0.7-3.4-3.6-4-5.5-4c-3.5,0-6.4,2.6-6.4,7.7c0,4.6,1.6,8.1,6.5,8.1c1.7,0,4.6-0.8,5.5-5.3h2.5
		c-1.1,7.3-7,7.7-8.5,7.7c-4.4,0-8.7-2.9-8.7-10.4c0-6,3.4-10.1,9.1-10.1c5,0,7.6,3.1,8,6.4H318.5z"/>
	<path class="st0" d="M323.3,245.3c0,3.7,2.1,7.5,6.6,7.5c4.5,0,6.6-3.8,6.6-7.5c0-3.7-2.1-7.5-6.6-7.5
		C325.4,237.8,323.3,241.7,323.3,245.3L323.3,245.3z M325.8,245.3c0-1.9,0.7-5.4,4.1-5.4c3.4,0,4.1,3.5,4.1,5.4
		c0,1.9-0.7,5.4-4.1,5.4C326.5,250.7,325.8,247.2,325.8,245.3z"/>
	<path class="st0" d="M341.9,252.4h-2.4v-14.2h2.3v2.3h0.1c0.9-1.6,2.2-2.8,4-2.8c0.3,0,0.4,0,0.6,0.1v2.5h-0.9
		c-2.2,0-3.6,1.7-3.6,3.8V252.4z"/>
	<path class="st0" d="M348.8,258h2.4v-7.1h0.1c0.6,1,1.9,1.9,3.8,1.9c4.8,0,6.2-4.5,6.2-7.9c0-4-2.1-7.1-5.9-7.1
		c-2.6,0-3.7,1.6-4.2,2.4h-0.1v-2h-2.2V258L348.8,258z M351.1,246c0-2.3,0.4-6,3.8-6c3.7,0,3.9,3.5,3.9,5.3c0,3.1-1.2,5.5-3.8,5.5
		C353.5,250.8,351.1,249.8,351.1,246z"/>
	<path class="st0" d="M363.3,245.3c0,3.7,2.1,7.5,6.6,7.5c4.5,0,6.6-3.8,6.6-7.5c0-3.7-2.1-7.5-6.6-7.5
		C365.3,237.8,363.3,241.7,363.3,245.3L363.3,245.3z M365.7,245.3c0-1.9,0.7-5.4,4.1-5.4c3.4,0,4.1,3.5,4.1,5.4
		c0,1.9-0.7,5.4-4.1,5.4C366.4,250.7,365.7,247.2,365.7,245.3z"/>
	<path class="st0" d="M381.9,252.4h-2.4v-14.2h2.3v2.3h0c1-1.6,2.2-2.8,4-2.8c0.3,0,0.4,0,0.6,0.1v2.5h-0.9c-2.2,0-3.6,1.7-3.6,3.8
		V252.4z"/>
	<path class="st0" d="M390,242.5c0.2-1.1,0.5-2.7,3.2-2.7c2.3,0,3.3,0.8,3.3,2.3c0,1.4-0.7,1.6-1.2,1.7l-3.9,0.5
		c-4,0.5-4.3,3.3-4.3,4.4c0,2.4,1.8,4.1,4.4,4.1c2.8,0,4.2-1.3,5.1-2.3c0.1,1.1,0.4,2.2,2.5,2.2c0.5,0,0.9-0.2,1.3-0.3v-1.7
		c-0.3,0.1-0.6,0.1-0.8,0.1c-0.5,0-0.8-0.3-0.8-0.8v-8.2c0-3.6-4.1-4-5.3-4c-3.5,0-5.7,1.3-5.8,4.7H390L390,242.5z M396.5,247.5
		c0,1.9-2.2,3.3-4.4,3.3c-1.8,0-2.6-0.9-2.6-2.5c0-1.8,1.8-2.1,3-2.3c2.9-0.4,3.5-0.6,3.9-0.9V247.5z"/>
	<path class="st0" d="M405.9,240.2v9.2c0,1.1,1,1.1,1.4,1.1h0.8v1.9c-0.9,0.1-1.5,0.2-1.8,0.2c-2.4,0-2.9-1.3-2.9-3v-9.3h-1.9v-2
		h1.9v-4h2.4v4h2.3v2H405.9z"/>
	<path class="st0" d="M410.6,235.7V233h2.4v2.7H410.6L410.6,235.7z M412.9,252.4h-2.4v-14.2h2.4V252.4z"/>
	<path class="st0" d="M415.7,245.3c0,3.7,2.1,7.5,6.6,7.5c4.5,0,6.6-3.8,6.6-7.5c0-3.7-2.1-7.5-6.6-7.5
		C417.8,237.8,415.7,241.7,415.7,245.3L415.7,245.3z M418.2,245.3c0-1.9,0.7-5.4,4.1-5.4c3.4,0,4.1,3.5,4.1,5.4
		c0,1.9-0.7,5.4-4.1,5.4C418.9,250.7,418.2,247.2,418.2,245.3z"/>
	<path class="st0" d="M443.1,252.4h-2.4v-8.7c0-2.5-0.7-3.7-3-3.7c-1.4,0-3.7,0.9-3.7,4.7v7.7h-2.4v-14.2h2.3v2h0
		c0.5-0.8,1.8-2.4,4.3-2.4c2.2,0,5,0.9,5,4.9V252.4z"/>
	<path class="st0" d="M465.9,238.2h-2.3v2.1c-0.6-0.9-1.7-2.5-4.3-2.5c-3.8,0-5.9,3.1-5.9,7.1c0,3.4,1.4,7.9,6.2,7.9
		c1.9,0,3.1-0.9,3.8-2v0.6c0,1.7,0.1,5-4,5c-0.6,0-2.8,0-3.2-2.2h-2.4c0.5,3.8,3.7,4.2,5.4,4.2c6.6,0,6.6-5.1,6.6-7.1V238.2
		L465.9,238.2z M456,245.3c0-1.8,0.2-5.3,3.9-5.3c3.5,0,3.8,3.7,3.8,6c0,3.8-2.4,4.8-3.9,4.8C457.2,250.8,456,248.4,456,245.3z"/>
	<path class="st0" d="M471.7,252.4h-2.4v-14.2h2.3v2.3h0c1-1.6,2.2-2.8,4-2.8c0.3,0,0.4,0,0.6,0.1v2.5h-0.9c-2.2,0-3.6,1.7-3.6,3.8
		V252.4z"/>
	<path class="st0" d="M477.2,245.3c0,3.7,2.1,7.5,6.6,7.5s6.6-3.8,6.6-7.5c0-3.7-2.1-7.5-6.6-7.5S477.2,241.7,477.2,245.3
		L477.2,245.3z M479.7,245.3c0-1.9,0.7-5.4,4.1-5.4c3.4,0,4.1,3.5,4.1,5.4c0,1.9-0.7,5.4-4.1,5.4
		C480.3,250.7,479.7,247.2,479.7,245.3z"/>
	<path class="st0" d="M502.3,252.4v-2.1l0-0.1c-1,1.7-2.2,2.5-4.5,2.5c-2.1,0-4.6-1-4.6-4.4v-10.2h2.4v9.4c0,2.3,1.2,3.1,2.7,3.1
		c3,0,3.9-2.7,3.9-4.7v-7.8h2.4v14.2H502.3z"/>
	<path class="st0" d="M507.9,258h2.4v-7.1h0.1c0.6,1,1.9,1.9,3.8,1.9c4.8,0,6.2-4.5,6.2-7.9c0-4-2.2-7.1-5.9-7.1
		c-2.6,0-3.7,1.6-4.2,2.4h0v-2h-2.3V258L507.9,258z M510.2,246c0-2.3,0.4-6,3.8-6c3.7,0,3.9,3.5,3.9,5.3c0,3.1-1.2,5.5-3.8,5.5
		C512.6,250.8,510.2,249.8,510.2,246z"/>
</g>
</svg>
